{
	"asset":{
		"generator":"Khronos glTF Blender I/O v4.5.47",
		"version":"2.0"
	},
	"scene":0,
	"scenes":[
		{
			"name":"Scene",
			"nodes":[
				0
			]
		}
	],
	"nodes":[
		{
			"mesh":0,
			"name":"polySurface1",
			"rotation":[
				0.6046873927116394,
				0,
				0,
				0.796462893486023
			],
			"scale":[
				17.65240478515625,
				17.652402877807617,
				17.652402877807617
			],
			"translation":[
				0,
				8.197976112365723,
				0
			]
		}
	],
	"materials":[
		{
			"doubleSided":true,
			"name":"Material.005",
			"normalTexture":{
				"index":0
			},
			"pbrMetallicRoughness":{
				"baseColorTexture":{
					"index":1
				},
				"metallicRoughnessTexture":{
					"index":2
				}
			}
		}
	],
	"meshes":[
		{
			"name":"Mesh.007",
			"primitives":[
				{
					"attributes":{
						"POSITION":0,
						"NORMAL":1,
						"TEXCOORD_0":2
					},
					"indices":3,
					"material":0
				}
			]
		}
	],
	"textures":[
		{
			"sampler":0,
			"source":0
		},
		{
			"sampler":0,
			"source":1
		},
		{
			"sampler":0,
			"source":2
		}
	],
	"images":[
		{
			"mimeType":"image/png",
			"name":"standardSurface1_Normal",
			"uri":"standardSurface1_Normal.png"
		},
		{
			"mimeType":"image/png",
			"name":"standardSurface1_Base_color",
			"uri":"standardSurface1_Base_color.png"
		},
		{
			"mimeType":"image/png",
			"name":"standardSurface1_Metallic.png-standardSurface1_Roughness.png",
			"uri":"standardSurface1_Metallic.png-standardSurface1_Roughness.png.png"
		}
	],
	"accessors":[
		{
			"bufferView":0,
			"componentType":5126,
			"count":438,
			"max":[
				0.15200109779834747,
				0.04255509376525879,
				0.23718997836112976
			],
			"min":[
				-0.15192364156246185,
				-0.033832255750894547,
				-0.19304154813289642
			],
			"type":"VEC3"
		},
		{
			"bufferView":1,
			"componentType":5126,
			"count":438,
			"type":"VEC3"
		},
		{
			"bufferView":2,
			"componentType":5126,
			"count":438,
			"type":"VEC2"
		},
		{
			"bufferView":3,
			"componentType":5123,
			"count":1068,
			"type":"SCALAR"
		}
	],
	"bufferViews":[
		{
			"buffer":0,
			"byteLength":5256,
			"byteOffset":0,
			"target":34962
		},
		{
			"buffer":0,
			"byteLength":5256,
			"byteOffset":5256,
			"target":34962
		},
		{
			"buffer":0,
			"byteLength":3504,
			"byteOffset":10512,
			"target":34962
		},
		{
			"buffer":0,
			"byteLength":2136,
			"byteOffset":14016,
			"target":34963
		}
	],
	"samplers":[
		{
			"magFilter":9729,
			"minFilter":9987
		}
	],
	"buffers":[
		{
			"byteLength":16152,
			"uri":"escudo.bin"
		}
	]
}
